<?xml version="1.0" standalone="no"?>
<!DOCTYPE svg PUBLIC "-//W3C//DTD SVG 20010904//EN"
 "http://www.w3.org/TR/2001/REC-SVG-20010904/DTD/svg10.dtd">
<svg version="1.0" xmlns="http://www.w3.org/2000/svg"
 width="1024.000000pt" height="1019.000000pt" viewBox="0 0 1024.000000 1019.000000"
 preserveAspectRatio="xMidYMid meet">

<g transform="translate(0.000000,1019.000000) scale(0.100000,-0.100000)"
fill="#000000" stroke="none">
<path d="M6629 8110 c-46 -13 -81 -43 -138 -115 -31 -38 -88 -108 -128 -155
-98 -115 -339 -421 -392 -497 -72 -101 -68 -193 10 -269 l40 -39 279 -3 280
-3 0 -67 c0 -92 16 -140 60 -184 35 -35 42 -38 94 -38 103 0 146 46 146 157 0
32 3 74 6 94 6 36 7 36 63 42 32 2 67 11 79 18 33 21 62 82 62 130 0 87 -48
133 -134 131 -31 -1 -58 3 -61 8 -3 5 -5 75 -5 157 0 81 -3 237 -6 347 l-7
199 -31 35 c-17 19 -45 41 -63 48 -35 15 -112 17 -154 4z m-43 -481 c-3 -34
-6 -120 -6 -190 l0 -129 -145 0 c-80 0 -145 4 -145 8 0 5 10 17 21 28 12 10
34 42 50 69 15 28 55 80 87 116 33 37 74 87 92 113 18 25 38 46 43 46 6 0 7
-24 3 -61z"/>
<path d="M3854 8085 c-35 -17 -72 -51 -125 -112 -154 -180 -438 -546 -491
-634 -63 -104 -61 -193 7 -267 l33 -37 289 -5 288 -5 6 -101 c4 -84 9 -106 29
-133 42 -60 112 -75 187 -42 63 29 78 65 77 184 l-1 97 58 0 c51 0 63 4 94 31
40 36 58 88 46 139 -18 81 -56 110 -143 110 l-53 0 0 339 -1 339 -26 40 c-54
81 -175 106 -274 57z m1 -577 l0 -193 -155 -3 -154 -3 28 29 c15 16 51 63 79
105 41 60 196 257 201 257 1 0 2 -87 1 -192z"/>
<path d="M5049 8099 c-125 -13 -296 -101 -370 -191 -178 -214 -225 -486 -129
-748 33 -92 67 -147 134 -219 157 -167 385 -232 582 -166 107 36 150 60 212
119 98 92 151 169 194 279 36 91 41 114 45 213 8 170 -16 282 -88 405 -128
220 -341 334 -580 308z m140 -295 c132 -39 221 -189 221 -374 0 -192 -91 -347
-228 -386 -224 -65 -406 159 -372 458 14 121 78 236 154 275 83 44 145 51 225
27z"/>
<path d="M2252 6467 c-28 -29 -52 -61 -52 -71 0 -15 7 -17 48 -14 42 3 47 1
50 -19 5 -33 19 -28 40 15 17 35 17 40 2 86 -9 28 -21 51 -26 53 -5 2 -33 -21
-62 -50z"/>
<path d="M2496 6461 c-24 -25 -36 -45 -33 -55 7 -17 68 -31 94 -22 14 4 12 1
-4 -13 -12 -10 -19 -21 -16 -25 11 -10 23 -7 23 7 0 8 9 22 20 32 11 10 20 25
20 33 0 17 -47 82 -58 82 -5 0 -25 -18 -46 -39z"/>
<path d="M5802 6209 c3 -109 5 -124 21 -127 13 -3 17 4 17 31 0 34 1 34 55 45
107 22 134 69 76 134 -26 30 -35 33 -100 36 l-72 4 3 -123z m132 38 c13 -35
-4 -48 -54 -45 -28 2 -36 8 -38 26 -6 42 5 53 45 50 31 -2 39 -8 47 -31z"/>
<path d="M6102 6318 c-7 -7 -12 -16 -12 -20 0 -4 -18 -48 -40 -97 -22 -49 -40
-96 -40 -105 0 -24 28 -20 53 8 14 16 37 26 65 29 39 5 44 3 57 -24 10 -18 23
-29 37 -29 18 0 20 4 14 33 -12 62 -94 217 -115 217 -4 0 -12 -5 -19 -12z m42
-93 c9 -13 16 -28 16 -34 0 -10 -69 -25 -78 -17 -8 8 25 76 37 76 5 0 16 -11
25 -25z"/>
<path d="M6339 6314 c-91 -59 -89 -183 4 -227 45 -22 65 -21 104 3 34 21 47
49 41 96 -3 25 -8 29 -36 32 -32 3 -62 -11 -62 -29 0 -5 6 -9 14 -9 20 0 37
-25 30 -45 -6 -13 -15 -16 -43 -11 -43 7 -57 24 -66 79 -6 35 -4 43 15 59 24
20 74 23 114 8 20 -7 26 -6 26 3 0 47 -91 73 -141 41z"/>
<path d="M6550 6205 l0 -125 84 0 c79 0 84 1 79 20 -4 15 -15 20 -57 22 -45 3
-51 6 -54 27 -4 29 12 41 55 41 17 0 35 5 38 10 4 6 -13 10 -44 10 -50 0 -51
1 -51 29 0 24 5 31 30 36 16 4 44 5 62 3 29 -3 33 0 33 22 0 25 -2 25 -87 28
l-88 3 0 -126z"/>
<path d="M4995 5985 c-22 -8 -41 -15 -43 -15 -2 0 -43 -38 -93 -85 l-89 -85
-118 0 c-193 0 -274 -31 -388 -147 -161 -163 -196 -382 -94 -589 77 -158 177
-240 325 -269 28 -5 28 -5 8 6 -13 7 -23 15 -23 19 0 4 33 23 74 44 97 47 146
102 176 196 19 59 22 83 16 141 -3 39 -11 79 -17 90 -9 18 -6 19 44 19 68 0
190 31 258 66 70 35 168 135 202 204 31 63 47 161 37 225 -20 134 -158 224
-275 180z m-448 -765 c64 -50 81 -125 43 -187 -40 -66 -133 -84 -190 -37 -61
51 -76 119 -42 183 37 70 128 89 189 41z"/>
<path d="M6243 5883 c-34 -6 -29 -33 6 -33 27 0 28 -2 35 -61 3 -34 6 -79 6
-100 0 -28 4 -39 15 -39 12 0 15 17 15 95 l0 95 30 0 c25 0 30 4 30 25 0 24
-2 25 -57 24 -32 -1 -68 -4 -80 -6z"/>
<path d="M6548 5883 l-38 -4 0 -115 c0 -87 3 -114 13 -114 7 0 17 19 23 42 6
31 14 44 29 46 54 8 65 13 65 32 0 17 -7 20 -45 20 -41 0 -45 2 -45 25 0 22 5
25 50 31 40 5 50 10 50 25 0 20 -12 21 -102 12z"/>
<path d="M6753 5876 c-48 -22 -66 -57 -61 -115 13 -135 140 -160 206 -40 30
52 26 83 -16 129 -32 37 -83 47 -129 26z m94 -58 c45 -42 16 -128 -43 -128
-29 0 -84 49 -84 75 0 24 55 75 81 75 13 0 33 -10 46 -22z"/>
<path d="M6961 5818 c0 -40 5 -89 12 -108 15 -44 62 -72 102 -62 46 13 62 46
69 145 5 81 4 87 -14 87 -18 0 -20 -7 -20 -69 0 -94 -11 -121 -49 -121 -40 0
-54 26 -60 120 -5 61 -9 75 -23 78 -16 3 -18 -5 -17 -70z"/>
<path d="M7335 5878 c-2 -7 -6 -41 -7 -76 l-3 -63 -43 65 c-60 92 -77 90 -86
-11 -7 -83 2 -134 24 -141 10 -4 12 9 8 62 -7 76 -5 76 63 -9 24 -30 49 -55
56 -55 17 0 25 52 21 149 -2 56 -7 86 -15 89 -7 2 -15 -2 -18 -10z"/>
<path d="M5900 5821 c0 -33 5 -72 11 -88 5 -15 8 -25 6 -23 -3 3 -32 40 -66
83 -40 50 -68 77 -81 77 -18 0 -20 -7 -20 -87 0 -102 7 -133 27 -133 12 0 14
14 11 71 l-3 70 68 -71 c37 -39 72 -68 77 -65 22 14 7 225 -16 225 -10 0 -14
-16 -14 -59z"/>
<path d="M6014 5846 c-38 -38 -42 -64 -18 -122 21 -52 50 -74 100 -74 94 0
134 128 62 201 -43 43 -98 41 -144 -5z m130 -38 c19 -27 20 -48 4 -82 -13 -30
-39 -40 -74 -32 -32 8 -59 67 -44 96 23 44 89 54 114 18z"/>
<path d="M7428 5873 c-2 -5 -3 -57 -3 -118 l0 -110 55 1 c94 2 159 48 160 114
0 46 -23 78 -74 101 -41 18 -132 26 -138 12z m111 -44 c36 -13 51 -35 51 -77
0 -33 -28 -53 -81 -55 l-34 -2 -3 59 c-5 90 2 97 67 75z"/>
<path d="M4946 5258 c-21 -30 -20 -50 5 -82 25 -32 62 -34 83 -4 22 31 20 64
-4 88 -27 27 -65 26 -84 -2z"/>
<path d="M3006 5172 c-3 -41 -6 -228 -6 -416 l0 -340 -47 82 c-64 110 -159
228 -252 312 -74 66 -76 70 -73 108 11 109 -94 185 -189 137 -83 -43 -91 -164
-16 -233 35 -33 108 -34 140 -4 13 12 28 22 34 22 18 0 192 -193 251 -278 87
-126 138 -236 147 -317 4 -38 7 -519 7 -1067 -1 -764 2 -998 11 -998 24 0 57
12 53 19 -3 4 -5 488 -6 1077 l-2 1069 40 73 c61 108 98 154 240 296 l130 128
29 -22 c39 -28 115 -30 152 -3 86 63 71 183 -28 227 -51 24 -104 15 -143 -24
-24 -25 -28 -36 -28 -88 0 -58 0 -59 -46 -92 -92 -65 -263 -244 -334 -346 -13
-19 -15 23 -12 361 l4 382 -25 5 c-24 5 -25 3 -31 -70z"/>
<path d="M1940 3867 c0 -8 52 -153 115 -323 64 -170 126 -338 140 -374 46
-125 45 -129 -31 -81 -49 32 -268 116 -321 124 -24 4 -33 1 -33 -9 0 -13 59
-47 130 -74 19 -7 82 -33 139 -58 66 -28 113 -42 131 -40 26 4 31 -1 58 -56
16 -34 33 -72 36 -86 4 -14 18 -50 31 -80 14 -30 51 -122 84 -205 103 -260
160 -396 202 -482 34 -72 38 -87 27 -101 -7 -9 6 -1 28 18 l41 35 -32 60 c-18
33 -36 71 -40 85 -4 14 -39 97 -77 184 -79 181 -157 375 -183 456 -10 30 -28
75 -41 100 -36 71 -73 164 -121 305 -25 72 -57 162 -73 200 -16 39 -54 139
-85 224 -31 85 -60 162 -66 172 -11 22 -59 26 -59 6z"/>
<path d="M7135 3448 c-3 -7 -4 -210 -3 -451 2 -240 1 -437 -2 -437 -3 0 -70
65 -150 145 -146 146 -181 169 -195 126 -4 -14 34 -58 170 -193 l175 -174 -1
-333 c0 -208 4 -360 12 -405 10 -65 9 -83 -10 -163 -11 -50 -21 -102 -21 -117
l0 -26 585 0 585 0 0 34 c0 44 -34 154 -66 214 -14 26 -23 39 -20 28 5 -14 3
-17 -11 -11 -36 15 -53 17 -53 7 0 -5 -7 -13 -16 -16 -12 -4 -15 -2 -10 9 9
25 -4 46 -25 40 -13 -4 -19 -1 -19 9 0 11 -9 16 -30 16 -17 0 -30 5 -30 13 -1
6 -10 1 -20 -12 -19 -22 -20 -22 -20 -3 0 26 -16 37 -24 16 -3 -9 -11 -14 -18
-12 -7 3 -23 -7 -37 -21 -13 -14 -22 -19 -19 -11 8 24 -10 49 -32 45 -13 -2
-20 2 -20 11 0 9 5 12 12 8 7 -4 8 -3 4 4 -4 6 -13 9 -22 5 -8 -3 -12 -8 -10
-11 3 -3 1 -11 -5 -18 -9 -10 -7 -15 4 -20 9 -3 21 -3 27 1 5 3 10 -1 10 -9 0
-19 -17 -30 -23 -14 -3 10 -7 10 -20 -1 -10 -7 -17 -9 -17 -3 0 6 6 13 13 16
6 4 -2 4 -18 2 -17 -3 -37 0 -45 5 -13 9 -13 10 0 8 20 -3 50 11 50 22 0 6 -7
6 -18 0 -11 -6 -24 -6 -36 1 -14 8 -17 7 -12 -1 4 -6 3 -11 -2 -11 -15 0 -73
26 -70 31 2 2 -2 -2 -9 -10 -7 -7 -19 -11 -28 -7 -9 3 -26 1 -38 -4 -18 -8
-19 -8 -6 1 15 11 14 14 -3 31 -29 29 -88 19 -88 -16 0 -6 5 -4 11 4 8 12 10
12 7 1 -2 -8 -15 -15 -29 -17 -13 -1 -18 0 -11 2 22 10 12 26 -13 22 -14 -3
-29 0 -33 6 -4 6 -16 18 -26 26 -18 14 -19 13 -12 -12 8 -34 -7 -37 -22 -5 -6
12 -11 17 -11 10 -1 -7 -8 -10 -16 -7 -17 7 -19 -4 -6 -25 5 -8 14 -10 22 -5
12 7 12 5 1 -9 -12 -15 -16 -15 -29 -2 -13 13 -18 13 -43 -5 -16 -11 -35 -36
-42 -56 -8 -23 -14 -30 -18 -20 -3 8 -2 178 2 378 l8 362 48 51 c27 27 81 89
120 137 40 48 95 106 122 130 28 24 50 46 50 50 0 11 -31 38 -43 38 -7 0 -23
-10 -37 -23 -34 -30 -220 -234 -247 -272 l-22 -30 -1 473 0 472 -25 0 c-14 0
-28 -6 -30 -12z m912 -1724 c-3 -3 -12 -4 -19 -1 -8 3 -5 6 6 6 11 1 17 -2 13
-5z m-380 -26 c-3 -8 -6 -5 -6 6 -1 11 2 17 5 13 3 -3 4 -12 1 -19z m386 -3
c-3 -9 -8 -14 -10 -11 -3 3 -2 9 2 15 9 16 15 13 8 -4z m132 -28 c11 -3 6 -5
-12 -4 -32 1 -40 7 -26 20 4 4 9 3 12 -2 3 -5 15 -11 26 -14z"/>
<path d="M2460 3344 c-6 -14 -10 -30 -10 -36 0 -6 -20 -74 -45 -152 -47 -148
-55 -206 -31 -206 7 0 18 6 24 13 12 14 112 363 112 390 0 28 -39 21 -50 -9z"/>
<path d="M4474 3172 l-31 -3 1 -102 c1 -78 -3 -109 -16 -132 -27 -50 -76 -92
-114 -99 l-35 -7 3 -559 3 -559 35 -7 c48 -9 332 -6 342 4 5 5 7 299 6 654 -2
355 1 644 5 641 4 -3 44 -4 88 -4 l80 1 -3 -278 c-2 -152 -2 -445 0 -649 l2
-373 190 0 190 0 0 740 0 741 -357 -3 c-197 -1 -372 -4 -389 -6z"/>
<path d="M7595 1807 c-4 -10 -5 -21 -1 -24 10 -10 18 4 13 24 -4 17 -4 17 -12
0z"/>
<path d="M7650 1816 c0 -2 7 -7 16 -10 8 -3 12 -2 9 4 -6 10 -25 14 -25 6z"/>
<path d="M7870 1760 c0 -11 5 -20 10 -20 6 0 10 9 10 20 0 11 -4 20 -10 20 -5
0 -10 -9 -10 -20z"/>
<path d="M4280 1505 l0 -82 182 -6 c250 -9 346 -9 353 3 8 14 -19 74 -46 100
-56 53 -97 62 -300 64 l-189 2 0 -81z"/>
<path d="M4955 1585 c-5 -2 -28 -6 -50 -8 l-40 -3 1 -72 c0 -39 2 -74 5 -76 8
-9 557 -11 565 -3 13 12 -27 77 -66 108 -20 17 -56 33 -85 38 -56 10 -314 23
-330 16z"/>
<path d="M3681 1040 c-22 -55 -41 -105 -41 -110 0 -6 9 -10 19 -10 13 0 21 8
23 23 2 18 10 23 45 25 38 3 43 1 49 -22 8 -32 44 -36 44 -6 0 29 -59 166 -80
185 -16 14 -20 9 -59 -85z m73 -16 c6 -18 2 -22 -24 -26 -35 -5 -34 -8 -14 40
16 38 23 36 38 -14z"/>
<path d="M6610 1035 c0 -90 2 -105 16 -105 14 0 16 11 12 69 -2 38 -1 68 3 65
4 -2 28 -35 55 -74 67 -99 75 -94 72 37 -3 91 -6 108 -19 111 -15 3 -16 -5
-12 -62 3 -37 3 -66 1 -66 -3 0 -25 26 -49 58 -74 99 -79 97 -79 -33z"/>
<path d="M3398 1124 c-9 -9 -11 -166 -2 -188 3 -9 13 -16 21 -16 11 0 14 9 11
35 -4 34 -3 35 33 35 44 0 89 32 89 65 0 42 -31 68 -91 73 -30 2 -57 0 -61 -4z
m110 -56 c4 -35 -29 -55 -65 -39 -19 9 -23 16 -17 34 9 29 23 38 54 35 19 -2
26 -10 28 -30z"/>
<path d="M3969 1101 c-43 -43 -41 -101 5 -147 38 -38 70 -43 116 -19 30 16 47
53 36 80 -4 10 -20 15 -51 15 -51 0 -60 -15 -14 -25 21 -5 29 -11 25 -22 -3
-8 -6 -17 -6 -19 0 -2 -14 -4 -30 -4 -33 0 -80 38 -80 63 0 8 10 27 21 42 20
24 26 26 65 20 34 -5 44 -3 44 7 0 24 -23 38 -63 38 -29 0 -46 -7 -68 -29z"/>
<path d="M4258 1028 c2 -57 5 -103 6 -104 0 -1 31 1 69 4 45 3 67 9 67 17 0
13 -43 25 -86 25 -17 0 -24 6 -24 19 0 16 8 20 42 23 49 4 66 28 20 28 -43 0
-62 9 -62 31 0 13 7 19 24 19 45 0 86 13 86 26 0 11 -18 14 -73 14 l-73 0 4
-102z"/>
<path d="M4687 1123 c-9 -8 -9 -150 -1 -180 7 -26 32 -31 40 -8 3 8 2 40 -4
71 l-9 56 41 -48 c22 -27 51 -60 63 -74 34 -40 44 -17 41 91 -2 77 -6 94 -19
97 -15 3 -16 -6 -11 -65 l5 -68 -22 20 c-13 11 -38 41 -58 67 -33 45 -51 57
-66 41z"/>
<path d="M5020 1100 c-38 -41 -45 -75 -23 -112 28 -48 65 -71 101 -63 36 7 80
48 88 82 25 97 -98 166 -166 93z m102 -22 c27 -22 30 -53 7 -81 -23 -30 -59
-35 -83 -11 -48 48 23 133 76 92z"/>
<path d="M5307 1110 c-4 -17 0 -20 24 -20 l29 0 0 -80 c0 -64 3 -80 15 -80 12
0 15 16 15 80 l0 80 35 0 c28 0 35 4 35 20 0 18 -7 20 -74 20 -65 0 -74 -2
-79 -20z"/>
<path d="M5740 1031 c0 -77 3 -100 14 -104 11 -4 16 4 18 31 3 35 5 37 43 42
27 3 41 10 43 23 3 14 -4 17 -42 17 -42 0 -46 2 -46 25 0 25 12 31 74 37 16 2
31 9 34 16 3 9 -15 12 -67 12 l-71 0 0 -99z"/>
<path d="M5994 1094 c-47 -49 -44 -93 9 -151 56 -62 157 2 157 100 0 49 -40
87 -93 87 -33 0 -46 -6 -73 -36z m110 -20 c23 -22 20 -59 -7 -90 -21 -24 -26
-25 -48 -14 -30 16 -39 29 -39 59 0 51 60 80 94 45z"/>
<path d="M6297 1123 c-4 -3 -7 -34 -7 -67 0 -115 79 -175 144 -110 24 24 26
34 26 105 0 69 -2 79 -17 79 -15 0 -18 -11 -21 -73 -3 -89 -18 -110 -60 -87
-25 15 -27 21 -30 88 -2 51 -7 72 -16 72 -7 0 -16 -3 -19 -7z"/>
<path d="M6910 1030 l0 -100 45 0 c56 0 97 20 113 55 37 82 -14 145 -118 145
l-40 0 0 -100z m101 50 c14 -8 19 -21 19 -49 0 -42 -10 -55 -52 -65 l-28 -6 0
65 c0 59 2 65 21 65 11 0 29 -5 40 -10z"/>
</g>
</svg>
